<?xml version="1.0" encoding="utf-8"?>
<!-- Generator: Adobe Illustrator 23.0.6, SVG Export Plug-In . SVG Version: 6.00 Build 0)  -->
<svg version="1.2" baseProfile="tiny" id="Layer_1" xmlns="http://www.w3.org/2000/svg" xmlns:xlink="http://www.w3.org/1999/xlink"
	 x="0px" y="0px" viewBox="0 0 40 40" xml:space="preserve">
<g>
	<path fill="#FFFFFF" d="M22.4,14.4L15,21.7l-3.1-3.1c-0.6-0.6-1.6-0.6-2.2,0c-0.6,0.6-0.6,1.6,0,2.2l4.2,4.2
		c0.3,0.3,0.7,0.5,1.1,0.5s0.8-0.2,1.1-0.5l8.5-8.5c0.6-0.6,0.6-1.6,0-2.2C24,13.8,23,13.8,22.4,14.4z"/>
	<path fill="#FFFFFF" d="M37.9,18.9L28.5,9c-0.3-0.3-0.7-0.5-1.2-0.5H3.2c-0.9,0-1.6,0.7-1.6,1.6v19.8c0,0.9,0.7,1.6,1.6,1.6h24.2
		c0.4,0,0.9-0.2,1.2-0.5l9.4-9.9C38.5,20.5,38.5,19.5,37.9,18.9z M26.7,28.3H4.8V11.7h21.9l7.9,8.3L26.7,28.3z"/>
</g>
</svg>
