<?xml version="1.0" encoding="utf-8"?>
<!-- Generator: Adobe Illustrator 23.0.6, SVG Export Plug-In . SVG Version: 6.00 Build 0)  -->
<svg version="1.2" baseProfile="tiny" id="Layer_1" xmlns="http://www.w3.org/2000/svg" xmlns:xlink="http://www.w3.org/1999/xlink"
	 x="0px" y="0px" viewBox="0 0 40 40" xml:space="preserve">
<g>
	<path fill="#FFFFFF" d="M36.8,8.5H12.6c-0.4,0-0.9,0.2-1.2,0.5l-9.4,9.9c-0.6,0.6-0.6,1.6,0,2.2l9.4,9.9c0.3,0.3,0.7,0.5,1.2,0.5
		h24.2c0.9,0,1.6-0.7,1.6-1.6V10.1C38.4,9.2,37.7,8.5,36.8,8.5z M35.2,28.3H13.3L5.4,20l7.9-8.3h21.9V28.3z"/>
	<path fill="#FFFFFF" d="M18.4,25.4c0.3,0.3,0.7,0.4,1,0.4c0.4,0,0.8-0.1,1-0.4l3.2-3.2l3.2,3.2c0.3,0.3,0.7,0.4,1,0.4
		c0.4,0,0.8-0.1,1-0.4c0.6-0.6,0.6-1.5,0-2.1l-3.2-3.2l3.2-3.2c0.6-0.6,0.6-1.5,0-2.1c-0.6-0.6-1.5-0.6-2.1,0L23.7,18l-3.2-3.2
		c-0.6-0.6-1.5-0.6-2.1,0c-0.6,0.6-0.6,1.5,0,2.1l3.2,3.2l-3.2,3.2C17.9,23.9,17.9,24.8,18.4,25.4z"/>
</g>
</svg>
